<svg xmlns="http://www.w3.org/2000/svg" xmlns:xlink="http://www.w3.org/1999/xlink" width="500" zoomAndPan="magnify" viewBox="0 0 375 374.999991" height="500" preserveAspectRatio="xMidYMid meet" version="1.0"><defs><g/><clipPath id="e8a5f59358"><path d="M 56 37 L 318 37 L 318 338 L 56 338 Z M 56 37 " clip-rule="nonzero"/></clipPath><clipPath id="be84f4284d"><path d="M -7.757812 150.691406 L 253.042969 0.121094 L 382.578125 224.480469 L 121.777344 375.050781 Z M -7.757812 150.691406 " clip-rule="nonzero"/></clipPath><clipPath id="8b1572a203"><path d="M -7.753906 150.695312 L 253.246094 0.00390625 L 382.746094 224.304688 L 121.742188 374.992188 Z M -7.753906 150.695312 " clip-rule="nonzero"/></clipPath><clipPath id="da88a35aa2"><path d="M 317.996094 112.152344 L 317.496094 261.976562 L 186.996094 337.320312 L 56.996094 262.84375 L 57.496094 113.023438 L 187.996094 37.675781 Z M 317.996094 112.152344 " clip-rule="nonzero"/></clipPath><clipPath id="901f0d7ad9"><path d="M 81 69 L 294 69 L 294 313 L 81 313 Z M 81 69 " clip-rule="nonzero"/></clipPath><clipPath id="f40af26d6e"><path d="M 29.292969 160.878906 L 240.640625 38.859375 L 345.53125 220.535156 L 134.183594 342.554688 Z M 29.292969 160.878906 " clip-rule="nonzero"/></clipPath><clipPath id="ff5bc2fc0d"><path d="M 29.292969 160.878906 L 240.769531 38.785156 L 345.695312 220.523438 L 134.222656 342.617188 Z M 29.292969 160.878906 " clip-rule="nonzero"/></clipPath><clipPath id="2a384ba659"><path d="M 293.234375 129.652344 L 292.828125 251.046875 L 187.089844 312.09375 L 81.757812 251.75 L 82.164062 130.355469 L 187.902344 69.308594 Z M 293.234375 129.652344 " clip-rule="nonzero"/></clipPath><clipPath id="df8e52cc71"><rect x="0" width="138" y="0" height="165"/></clipPath><clipPath id="5399516c81"><rect x="0" width="375" y="0" height="375"/></clipPath></defs><g transform="matrix(1, 0, 0, 1, 0, 0)"><g clip-path="url(#5399516c81)"><g clip-path="url(#e8a5f59358)"><g clip-path="url(#be84f4284d)"><g clip-path="url(#8b1572a203)"><g clip-path="url(#da88a35aa2)"><path stroke-linecap="butt" transform="matrix(0.520557, -0.300544, 0.300544, 0.520557, -7.756447, 150.691836)" fill="none" stroke-linejoin="miter" d="M 501.39096 215.443075 L 376.042903 430.88863 L 125.350203 430.887969 L 0.00231067 215.44738 L 125.347119 0.00745337 L 376.043068 0.00248674 Z M 501.39096 215.443075 " stroke="#fcad00" stroke-width="4.990955" stroke-opacity="1" stroke-miterlimit="4"/></g></g></g></g><g clip-path="url(#901f0d7ad9)"><g clip-path="url(#f40af26d6e)"><g clip-path="url(#ff5bc2fc0d)"><g clip-path="url(#2a384ba659)"><path stroke-linecap="butt" transform="matrix(0.520557, -0.300544, 0.300544, 0.520557, 29.294056, 160.879794)" fill="none" stroke-linejoin="miter" d="M 406.251738 174.560997 L 304.687305 349.124041 L 101.56293 349.122385 L -0.00026007 174.563313 L 101.564173 0.000268765 L 304.688548 0.00192456 Z M 406.251738 174.560997 " stroke="#865d17" stroke-width="1.497287" stroke-opacity="1" stroke-miterlimit="4"/></g></g></g></g><g transform="matrix(1, 0, 0, 1, 120, 129)"><g clip-path="url(#df8e52cc71)"><g fill="#fcad00" fill-opacity="1"><g transform="translate(0.148576, 119.289471)"><g><path d="M 106.0625 0 C 103.425781 0 100.457031 0.0234375 97.15625 0.078125 C 93.851562 0.140625 90.660156 0.195312 87.578125 0.25 C 84.503906 0.300781 81.976562 0.382812 80 0.5 L 80 -6.109375 L 86.265625 -6.59375 C 88.242188 -6.8125 89.703125 -7.054688 90.640625 -7.328125 C 91.578125 -7.609375 92.207031 -7.96875 92.53125 -8.40625 C 93.082031 -8.957031 93.46875 -10.164062 93.6875 -12.03125 C 93.90625 -13.90625 94.015625 -16.769531 94.015625 -20.625 L 94.015625 -53.609375 C 92.265625 -53.722656 90.453125 -53.804688 88.578125 -53.859375 C 86.710938 -53.910156 84.347656 -53.9375 81.484375 -53.9375 C 78.628906 -53.9375 74.78125 -53.9375 69.9375 -53.9375 C 63.445312 -53.9375 58.164062 -53.9375 54.09375 -53.9375 C 50.03125 -53.9375 46.40625 -53.828125 43.21875 -53.609375 L 43.21875 -20.78125 C 43.21875 -16.71875 43.351562 -13.773438 43.625 -11.953125 C 43.90625 -10.140625 44.265625 -8.957031 44.703125 -8.40625 C 45.035156 -7.96875 45.664062 -7.609375 46.59375 -7.328125 C 47.53125 -7.054688 48.988281 -6.8125 50.96875 -6.59375 L 57.234375 -6.109375 L 57.234375 0.5 C 54.484375 0.382812 50.851562 0.269531 46.34375 0.15625 C 41.84375 0.0507812 37.0625 0 32 0 C 29.363281 0 26.394531 0.0234375 23.09375 0.078125 C 19.789062 0.140625 16.597656 0.195312 13.515625 0.25 C 10.441406 0.300781 7.914062 0.382812 5.9375 0.5 L 5.9375 -6.109375 L 12.203125 -6.59375 C 14.179688 -6.8125 15.640625 -7.054688 16.578125 -7.328125 C 17.515625 -7.609375 18.144531 -7.96875 18.46875 -8.40625 C 19.019531 -8.957031 19.40625 -10.164062 19.625 -12.03125 C 19.84375 -13.90625 19.953125 -16.769531 19.953125 -20.625 L 19.953125 -91.21875 C 19.953125 -95.070312 19.84375 -97.929688 19.625 -99.796875 C 19.40625 -101.660156 19.019531 -102.867188 18.46875 -103.421875 C 18.144531 -103.859375 17.515625 -104.242188 16.578125 -104.578125 C 15.640625 -104.910156 14.179688 -105.128906 12.203125 -105.234375 L 5.9375 -105.734375 L 5.9375 -112.328125 C 8.46875 -112.222656 12.148438 -112.113281 16.984375 -112 C 21.828125 -111.894531 26.722656 -111.84375 31.671875 -111.84375 C 36.617188 -111.84375 41.375 -111.894531 45.9375 -112 C 50.5 -112.113281 54.265625 -112.222656 57.234375 -112.328125 L 57.234375 -105.734375 L 51.140625 -105.234375 C 48.941406 -105.128906 47.375 -104.882812 46.4375 -104.5 C 45.5 -104.113281 44.921875 -103.753906 44.703125 -103.421875 C 44.265625 -102.867188 43.90625 -101.660156 43.625 -99.796875 C 43.351562 -97.929688 43.21875 -95.070312 43.21875 -91.21875 L 43.21875 -63.5 C 46.40625 -63.394531 49.976562 -63.3125 53.9375 -63.25 C 57.894531 -63.195312 63.117188 -63.171875 69.609375 -63.171875 C 74.773438 -63.171875 79.503906 -63.195312 83.796875 -63.25 C 88.085938 -63.3125 91.492188 -63.394531 94.015625 -63.5 L 94.015625 -91.21875 C 94.015625 -95.070312 93.90625 -97.929688 93.6875 -99.796875 C 93.46875 -101.660156 93.082031 -102.867188 92.53125 -103.421875 C 92.207031 -103.859375 91.578125 -104.242188 90.640625 -104.578125 C 89.703125 -104.910156 88.242188 -105.128906 86.265625 -105.234375 L 80 -105.734375 L 80 -112.328125 C 82.53125 -112.222656 86.210938 -112.113281 91.046875 -112 C 95.890625 -111.894531 100.785156 -111.84375 105.734375 -111.84375 C 110.679688 -111.84375 115.4375 -111.894531 120 -112 C 124.5625 -112.113281 128.328125 -112.222656 131.296875 -112.328125 L 131.296875 -105.734375 L 125.203125 -105.234375 C 123.003906 -105.128906 121.4375 -104.882812 120.5 -104.5 C 119.5625 -104.113281 118.984375 -103.753906 118.765625 -103.421875 C 118.328125 -102.867188 117.96875 -101.660156 117.6875 -99.796875 C 117.414062 -97.929688 117.28125 -95.070312 117.28125 -91.21875 L 117.28125 -20.78125 C 117.28125 -16.71875 117.414062 -13.773438 117.6875 -11.953125 C 117.96875 -10.140625 118.328125 -8.957031 118.765625 -8.40625 C 119.097656 -7.96875 119.726562 -7.609375 120.65625 -7.328125 C 121.59375 -7.054688 123.050781 -6.8125 125.03125 -6.59375 L 131.296875 -6.109375 L 131.296875 0.5 C 128.546875 0.382812 124.914062 0.269531 120.40625 0.15625 C 115.90625 0.0507812 111.125 0 106.0625 0 Z M 106.0625 0 "/></g></g></g></g></g></g></g></svg>